<mxfile host="65bd71144e">
    <diagram id="HeGG8hp2GJUNYHSZteFb" name="Page-1">
        <mxGraphModel dx="1043" dy="790" grid="1" gridSize="10" guides="1" tooltips="1" connect="1" arrows="1" fold="1" page="1" pageScale="1" pageWidth="1400" pageHeight="1000" background="#F4F1DE" math="0" shadow="1">
            <root>
                <mxCell id="0"/>
                <mxCell id="1" parent="0"/>
                <mxCell id="15" value="Account" style="whiteSpace=wrap;html=1;align=center;fillColor=#F2CC8F;strokeColor=#E07A5F;fontColor=#393C56;" parent="1" vertex="1">
                    <mxGeometry x="100" y="160" width="140" height="40" as="geometry"/>
                </mxCell>
                <mxCell id="Pm_e-wnwjflIycPdx4l8-20" value="account_ID" style="ellipse;whiteSpace=wrap;html=1;align=center;fontStyle=4;fillColor=#F2CC8F;strokeColor=#E07A5F;fontColor=#393C56;" parent="1" vertex="1">
                    <mxGeometry x="10" y="70" width="100" height="40" as="geometry"/>
                </mxCell>
                <mxCell id="Pm_e-wnwjflIycPdx4l8-21" value="account_name" style="ellipse;whiteSpace=wrap;html=1;align=center;fillColor=#F2CC8F;strokeColor=#E07A5F;fontColor=#393C56;" parent="1" vertex="1">
                    <mxGeometry x="140" y="70" width="100" height="40" as="geometry"/>
                </mxCell>
                <mxCell id="Pm_e-wnwjflIycPdx4l8-22" value="account_pw" style="ellipse;whiteSpace=wrap;html=1;align=center;fillColor=#F2CC8F;strokeColor=#E07A5F;fontColor=#393C56;" parent="1" vertex="1">
                    <mxGeometry x="250" y="70" width="100" height="40" as="geometry"/>
                </mxCell>
                <mxCell id="Pm_e-wnwjflIycPdx4l8-24" value="" style="endArrow=none;html=1;rounded=0;exitX=0.598;exitY=1.05;exitDx=0;exitDy=0;exitPerimeter=0;strokeColor=#E07A5F;labelBackgroundColor=#F4F1DE;fontColor=#393C56;" parent="1" source="Pm_e-wnwjflIycPdx4l8-20" target="15" edge="1">
                    <mxGeometry relative="1" as="geometry">
                        <mxPoint x="350" y="270" as="sourcePoint"/>
                        <mxPoint x="510" y="270" as="targetPoint"/>
                    </mxGeometry>
                </mxCell>
                <mxCell id="Pm_e-wnwjflIycPdx4l8-27" value="" style="endArrow=none;html=1;rounded=0;strokeColor=#E07A5F;labelBackgroundColor=#F4F1DE;fontColor=#393C56;" parent="1" source="Pm_e-wnwjflIycPdx4l8-21" target="15" edge="1">
                    <mxGeometry relative="1" as="geometry">
                        <mxPoint x="350" y="270" as="sourcePoint"/>
                        <mxPoint x="510" y="270" as="targetPoint"/>
                    </mxGeometry>
                </mxCell>
                <mxCell id="Pm_e-wnwjflIycPdx4l8-28" value="" style="endArrow=none;html=1;rounded=0;strokeColor=#E07A5F;labelBackgroundColor=#F4F1DE;fontColor=#393C56;" parent="1" source="Pm_e-wnwjflIycPdx4l8-22" target="15" edge="1">
                    <mxGeometry relative="1" as="geometry">
                        <mxPoint x="350" y="270" as="sourcePoint"/>
                        <mxPoint x="510" y="270" as="targetPoint"/>
                    </mxGeometry>
                </mxCell>
                <mxCell id="Pm_e-wnwjflIycPdx4l8-29" value="Email_address" style="whiteSpace=wrap;html=1;align=center;fillColor=#F2CC8F;strokeColor=#E07A5F;fontColor=#393C56;" parent="1" vertex="1">
                    <mxGeometry x="690" y="160" width="220" height="40" as="geometry"/>
                </mxCell>
                <mxCell id="Pm_e-wnwjflIycPdx4l8-30" value="has" style="shape=rhombus;perimeter=rhombusPerimeter;whiteSpace=wrap;html=1;align=center;fillColor=#F2CC8F;strokeColor=#E07A5F;fontColor=#393C56;" parent="1" vertex="1">
                    <mxGeometry x="400" y="150" width="90" height="60" as="geometry"/>
                </mxCell>
                <mxCell id="Pm_e-wnwjflIycPdx4l8-37" value="" style="endArrow=none;html=1;rounded=0;strokeColor=#E07A5F;exitX=1;exitY=0.5;exitDx=0;exitDy=0;entryX=0;entryY=0.5;entryDx=0;entryDy=0;strokeWidth=1;endFill=0;startArrow=ERone;startFill=0;labelBackgroundColor=#F4F1DE;fontColor=#393C56;" parent="1" source="15" target="Pm_e-wnwjflIycPdx4l8-30" edge="1">
                    <mxGeometry relative="1" as="geometry">
                        <mxPoint x="260" y="270" as="sourcePoint"/>
                        <mxPoint x="420" y="270" as="targetPoint"/>
                    </mxGeometry>
                </mxCell>
                <mxCell id="Pm_e-wnwjflIycPdx4l8-38" value="" style="endArrow=ERoneToMany;html=1;rounded=0;strokeColor=#E07A5F;strokeWidth=1;entryX=0;entryY=0.5;entryDx=0;entryDy=0;exitX=1;exitY=0.5;exitDx=0;exitDy=0;endFill=0;labelBackgroundColor=#F4F1DE;fontColor=#393C56;" parent="1" source="Pm_e-wnwjflIycPdx4l8-30" target="Pm_e-wnwjflIycPdx4l8-29" edge="1">
                    <mxGeometry relative="1" as="geometry">
                        <mxPoint x="350" y="190" as="sourcePoint"/>
                        <mxPoint x="510" y="190" as="targetPoint"/>
                    </mxGeometry>
                </mxCell>
                <mxCell id="Pm_e-wnwjflIycPdx4l8-39" value="emai_address_id" style="ellipse;whiteSpace=wrap;html=1;align=center;fontStyle=4;strokeColor=#E07A5F;fillColor=#F2CC8F;fontColor=#393C56;" parent="1" vertex="1">
                    <mxGeometry x="450" y="30" width="120" height="40" as="geometry"/>
                </mxCell>
                <mxCell id="Pm_e-wnwjflIycPdx4l8-40" value="&lt;span&gt;email_address_pw&lt;br&gt;&lt;/span&gt;" style="ellipse;whiteSpace=wrap;html=1;align=center;strokeColor=#E07A5F;fillColor=#F2CC8F;fontColor=#393C56;" parent="1" vertex="1">
                    <mxGeometry x="730" y="30" width="110" height="40" as="geometry"/>
                </mxCell>
                <mxCell id="Pm_e-wnwjflIycPdx4l8-41" value="domain" style="ellipse;whiteSpace=wrap;html=1;align=center;strokeColor=#E07A5F;fillColor=#F2CC8F;fontColor=#393C56;" parent="1" vertex="1">
                    <mxGeometry x="860" y="30" width="100" height="40" as="geometry"/>
                </mxCell>
                <mxCell id="Pm_e-wnwjflIycPdx4l8-43" value="" style="endArrow=none;html=1;rounded=0;strokeColor=#E07A5F;strokeWidth=1;entryX=0.5;entryY=1;entryDx=0;entryDy=0;exitX=0;exitY=0;exitDx=0;exitDy=0;labelBackgroundColor=#F4F1DE;fontColor=#393C56;" parent="1" source="Pm_e-wnwjflIycPdx4l8-29" target="Pm_e-wnwjflIycPdx4l8-39" edge="1">
                    <mxGeometry relative="1" as="geometry">
                        <mxPoint x="390" y="150" as="sourcePoint"/>
                        <mxPoint x="550" y="150" as="targetPoint"/>
                    </mxGeometry>
                </mxCell>
                <mxCell id="Pm_e-wnwjflIycPdx4l8-44" value="" style="endArrow=none;html=1;rounded=0;strokeColor=#E07A5F;strokeWidth=1;entryX=0.5;entryY=1;entryDx=0;entryDy=0;exitX=0.5;exitY=0;exitDx=0;exitDy=0;labelBackgroundColor=#F4F1DE;fontColor=#393C56;" parent="1" source="Pm_e-wnwjflIycPdx4l8-29" target="Pm_e-wnwjflIycPdx4l8-40" edge="1">
                    <mxGeometry relative="1" as="geometry">
                        <mxPoint x="400" y="160" as="sourcePoint"/>
                        <mxPoint x="560" y="160" as="targetPoint"/>
                    </mxGeometry>
                </mxCell>
                <mxCell id="Pm_e-wnwjflIycPdx4l8-45" value="" style="endArrow=none;html=1;rounded=0;strokeColor=#E07A5F;strokeWidth=1;entryX=0.5;entryY=1;entryDx=0;entryDy=0;exitX=0.75;exitY=0;exitDx=0;exitDy=0;labelBackgroundColor=#F4F1DE;fontColor=#393C56;" parent="1" source="Pm_e-wnwjflIycPdx4l8-29" target="Pm_e-wnwjflIycPdx4l8-41" edge="1">
                    <mxGeometry relative="1" as="geometry">
                        <mxPoint x="410" y="170" as="sourcePoint"/>
                        <mxPoint x="570" y="170" as="targetPoint"/>
                    </mxGeometry>
                </mxCell>
                <mxCell id="2Fs_b6sbEk3-gWQE4fiJ-16" value="email_address_name" style="ellipse;whiteSpace=wrap;html=1;align=center;strokeColor=#E07A5F;fillColor=#F2CC8F;fontColor=#393C56;" parent="1" vertex="1">
                    <mxGeometry x="600" y="30" width="120" height="40" as="geometry"/>
                </mxCell>
                <mxCell id="2Fs_b6sbEk3-gWQE4fiJ-17" value="" style="endArrow=none;html=1;rounded=0;strokeColor=#E07A5F;strokeWidth=1;entryX=0.5;entryY=1;entryDx=0;entryDy=0;labelBackgroundColor=#F4F1DE;fontColor=#393C56;" parent="1" target="2Fs_b6sbEk3-gWQE4fiJ-16" edge="1">
                    <mxGeometry relative="1" as="geometry">
                        <mxPoint x="740" y="160" as="sourcePoint"/>
                        <mxPoint x="700" y="250" as="targetPoint"/>
                    </mxGeometry>
                </mxCell>
                <mxCell id="2Fs_b6sbEk3-gWQE4fiJ-18" value="host" style="ellipse;whiteSpace=wrap;html=1;align=center;rounded=0;sketch=0;fontColor=#393C56;strokeColor=#E07A5F;fillColor=#F2CC8F;" parent="1" vertex="1">
                    <mxGeometry x="980" y="30" width="100" height="40" as="geometry"/>
                </mxCell>
                <mxCell id="2Fs_b6sbEk3-gWQE4fiJ-19" value="" style="endArrow=none;html=1;rounded=0;fontColor=#393C56;strokeColor=#E07A5F;fillColor=#F2CC8F;entryX=0.5;entryY=1;entryDx=0;entryDy=0;exitX=1;exitY=0;exitDx=0;exitDy=0;" parent="1" source="Pm_e-wnwjflIycPdx4l8-29" target="2Fs_b6sbEk3-gWQE4fiJ-18" edge="1">
                    <mxGeometry relative="1" as="geometry">
                        <mxPoint x="740" y="250" as="sourcePoint"/>
                        <mxPoint x="900" y="250" as="targetPoint"/>
                    </mxGeometry>
                </mxCell>
                <mxCell id="2Fs_b6sbEk3-gWQE4fiJ-20" value="is_verified" style="ellipse;whiteSpace=wrap;html=1;align=center;rounded=0;sketch=0;fontColor=#393C56;strokeColor=#E07A5F;fillColor=#F2CC8F;" parent="1" vertex="1">
                    <mxGeometry x="1100" y="30" width="100" height="40" as="geometry"/>
                </mxCell>
                <mxCell id="2Fs_b6sbEk3-gWQE4fiJ-21" value="" style="endArrow=none;html=1;rounded=0;fontColor=#393C56;strokeColor=#E07A5F;fillColor=#F2CC8F;entryX=0.5;entryY=1;entryDx=0;entryDy=0;exitX=1;exitY=0.25;exitDx=0;exitDy=0;" parent="1" source="Pm_e-wnwjflIycPdx4l8-29" target="2Fs_b6sbEk3-gWQE4fiJ-20" edge="1">
                    <mxGeometry relative="1" as="geometry">
                        <mxPoint x="670" y="150" as="sourcePoint"/>
                        <mxPoint x="830" y="150" as="targetPoint"/>
                    </mxGeometry>
                </mxCell>
            </root>
        </mxGraphModel>
    </diagram>
    <diagram id="PfklCQBDO_daDNkcMCsh" name="Page-2">
        <mxGraphModel dx="1043" dy="790" grid="1" gridSize="10" guides="1" tooltips="1" connect="1" arrows="1" fold="1" page="1" pageScale="1" pageWidth="827" pageHeight="1169" math="0" shadow="0">
            <root>
                <mxCell id="_phtcY4_Z-xJGnAYIRok-0"/>
                <mxCell id="_phtcY4_Z-xJGnAYIRok-1" parent="_phtcY4_Z-xJGnAYIRok-0"/>
            </root>
        </mxGraphModel>
    </diagram>
</mxfile>